<?xml version="1.0" standalone="no"?>
<!DOCTYPE svg PUBLIC "-//W3C//DTD SVG 20010904//EN"
 "http://www.w3.org/TR/2001/REC-SVG-20010904/DTD/svg10.dtd">
<svg version="1.0" xmlns="http://www.w3.org/2000/svg"
 width="512.000000pt" height="512.000000pt" viewBox="0 0 512.000000 512.000000"
 preserveAspectRatio="xMidYMid meet">
<metadata>
Created by potrace 1.14, written by Peter Selinger 2001-2017
</metadata>
<g transform="translate(0.000000,512.000000) scale(0.100000,-0.100000)"
fill="#000000" stroke="none">
<path d="M1303 3814 c-231 -39 -433 -168 -561 -359 -87 -130 -130 -263 -139
-435 -3 -63 -8 -118 -12 -121 -3 -3 -31 -13 -62 -22 -100 -30 -208 -121 -258
-218 -31 -60 -50 -150 -45 -222 6 -106 17 -140 71 -225 41 -66 86 -107 166
-152 l62 -35 0 -360 c0 -359 0 -360 23 -401 27 -46 93 -93 132 -95 117 -5 283
0 311 10 76 25 118 87 126 190 3 36 7 68 10 71 2 3 99 5 214 6 219 1 232 4
249 49 11 30 -8 72 -38 83 -16 6 -109 10 -225 9 -110 -1 -201 2 -204 6 -4 7
-6 277 -3 430 l0 27 1440 0 1440 0 1 -42 c2 -165 -1 -409 -4 -416 -3 -4 -464
-7 -1025 -6 -1127 1 -1058 5 -1066 -61 -5 -40 14 -65 56 -74 18 -3 484 -6
1036 -5 l1002 0 1 -40 c1 -23 1 -44 0 -49 -4 -24 24 -97 48 -124 49 -56 97
-69 257 -67 123 1 147 4 185 22 48 24 85 70 99 123 4 19 7 187 7 374 l-2 340
62 35 c76 43 120 82 162 144 89 129 101 298 31 450 -43 96 -164 197 -270 227
-25 7 -48 15 -51 18 -4 3 -10 54 -13 113 -16 270 -138 499 -349 657 -90 67
-203 117 -336 147 -32 7 -546 14 -571 7 -26 -7 -54 -68 -41 -91 23 -44 31 -45
304 -47 286 -3 289 -4 395 -41 269 -96 461 -376 458 -668 l-1 -78 -55 -17
c-79 -25 -111 -44 -177 -105 -39 -36 -70 -76 -91 -120 -28 -58 -50 -137 -44
-160 2 -4 -10 -5 -25 -1 -44 11 -264 55 -303 61 -19 2 -48 7 -65 9 -48 7 -105
13 -180 21 -78 7 -353 8 -400 0 -16 -2 -55 -8 -85 -11 -30 -4 -64 -9 -75 -11
-11 -2 -31 -6 -45 -9 -14 -3 -64 -15 -112 -28 l-88 -24 0 592 0 592 103 -1
c123 -2 151 6 167 45 15 35 -1 76 -35 89 -11 4 -171 7 -356 6 -316 -1 -338 -2
-358 -20 -27 -25 -28 -77 -1 -101 17 -15 41 -18 180 -18 l160 -1 0 -598 0
-597 -47 14 c-27 7 -73 18 -103 24 -30 6 -66 14 -80 16 -14 3 -70 12 -125 20
-336 47 -618 34 -909 -39 -54 -14 -102 -23 -106 -21 -4 3 -10 23 -14 46 -16
100 -108 229 -204 285 -26 15 -72 35 -102 45 l-55 17 -1 85 c-4 202 73 378
226 520 80 74 173 126 280 157 65 19 105 22 296 25 134 2 230 7 242 14 47 25
31 119 -21 123 -97 7 -405 2 -464 -8z m-498 -1084 c61 -30 112 -82 144 -150
l26 -55 2 -467 c1 -432 0 -468 -15 -469 -20 -1 -284 -1 -293 0 -4 1 -6 118 -6
261 0 237 -1 262 -18 280 -10 11 -22 20 -26 20 -5 0 -32 9 -61 20 -115 43
-192 158 -192 285 0 228 234 374 439 275z m3700 25 c184 -27 301 -241 228
-418 -27 -68 -103 -142 -170 -167 -29 -11 -57 -20 -62 -20 -4 0 -16 -9 -26
-20 -16 -18 -18 -44 -18 -280 0 -143 -3 -260 -6 -261 -8 -1 -251 -1 -283 0
l-26 1 1 473 2 472 27 51 c33 63 86 116 142 144 43 20 121 39 141 34 6 -2 28
-6 50 -9z m-2549 -309 c59 -4 110 -9 113 -10 3 -2 30 -7 59 -10 30 -3 73 -11
95 -16 23 -5 53 -11 67 -13 14 -3 66 -15 115 -27 131 -33 175 -32 280 1 335
108 693 110 1168 7 l147 -31 0 -79 0 -78 -1439 0 -1439 0 -3 28 c-2 15 -2 51
1 81 l5 54 45 13 c25 8 54 16 65 19 11 2 38 9 60 14 89 22 225 42 320 48 55 3
101 6 102 7 4 3 139 -2 239 -8z m-977 -1053 c-3 -85 -5 -86 -158 -86 -86 0
-136 4 -144 12 -10 10 -20 108 -12 121 2 3 74 6 159 6 l156 1 -1 -54z m3477
12 c3 -59 -5 -83 -29 -91 -12 -4 -76 -7 -141 -7 -103 1 -121 3 -133 19 -12 17
-19 105 -8 115 2 3 73 5 157 5 l153 -1 1 -40z"/>
</g>
</svg>
