<svg width="127" height="22" viewBox="0 0 127 22" fill="none" xmlns="http://www.w3.org/2000/svg">
<path d="M20.34 0L10.29 11.1L0.24 0H0V21.18H3.99V9.84L10.14 16.47H10.41L16.62 9.84V21.18H20.61V0H20.34Z" fill="#121212"/>
<path d="M23.0063 17.37V21.18H36.9563V17.37H23.0063ZM35.8463 8.79H23.0063V12.6H35.8463V8.79ZM36.7762 0.179999H23.0063V4.02H36.7762V0.179999Z" fill="#121212"/>
<path d="M38.1134 0.179999V4.02H53.4134V0.179999H38.1134ZM43.7834 21.18H47.7734V7.14H43.7834V21.18Z" fill="#121212"/>
<path d="M62.8434 0.179999H55.0734V4.02H62.7534C64.7634 4.02 66.0234 5.28 66.0234 7.08C66.0234 8.88 64.7634 10.17 62.7534 10.17H55.0734V21.18H59.0634V13.98H62.8434C67.5234 13.98 70.1334 10.92 70.1334 7.08C70.1334 3.24 67.5234 0.179999 62.8434 0.179999Z" fill="#121212"/>
<path d="M75.7709 0.179999H71.7809V21.42H72.0509L83.9609 9.42V21.18H87.9509V0H87.6809L75.7709 11.97V0.179999Z" fill="#121212"/>
<path d="M102.183 21.18H107.163L100.383 10.53L106.713 0.179999H102.333L96.8133 8.76H94.3533V0.179999H90.3633V21.18H94.3533V12.57H96.9033L102.183 21.18Z" fill="#121212"/>
<path d="M119.209 0.179999H115.129L107.449 21.18H111.979L117.169 6.18L122.359 21.18H126.889L119.209 0.179999Z" fill="#121212"/>
</svg>
